<?xml version="1.0" encoding="UTF-8" standalone="no"?>
<!-- Created with Inkscape (http://www.inkscape.org/) -->

<svg
   width="3516.9453"
   height="3516.9431"
   viewBox="0 0 930.52508 930.52451"
   version="1.1"
   id="svg1"
   xmlns="http://www.w3.org/2000/svg"
   xmlns:svg="http://www.w3.org/2000/svg">
  <defs
     id="defs1" />
  <g
     id="layer1"
     transform="translate(-70.000002,-70.000002)">
    <path
       id="path1"
       style="fill:#000000;stroke-width:0.345838"
       d="M 535.26255,70 A 465.26236,465.26236 0 0 0 70,535.26204 465.26236,465.26236 0 0 0 535.26255,1000.5246 465.26236,465.26236 0 0 0 1000.5251,535.26204 465.26236,465.26236 0 0 0 535.26255,70 Z m 0.22945,33.67856 A 431.38403,431.38403 0 0 1 966.876,535.06308 431.38403,431.38403 0 0 1 535.492,966.44709 431.38403,431.38403 0 0 1 104.10799,535.06308 431.38403,431.38403 0 0 1 535.492,103.67856 Z" />
    <g
       id="g4"
       transform="matrix(1.3379471,0,0,1.3379471,-135.75513,-144.05131)">
      <path
         id="path4"
         style="opacity:1;fill:#f9f9f9;stroke-width:0.248896"
         d="m 649.48651,450.85503 a 274.59239,355.9483 0 0 0 -149.39096,57.41255 274.59239,355.9483 0 0 0 0.0154,0.012 h -0.95478 a 275.70055,355.9483 0 0 1 -149.12639,56.72814 275.70055,355.9483 0 0 1 -149.0982,-56.72814 h -0.80762 a 300,300 0 0 0 299.38291,291.37313 300,300 0 0 0 299.38253,-291.37236 274.59239,355.9483 0 0 0 3.8e-4,-3.8e-4 274.59239,355.9483 0 0 0 -3.8e-4,-3.9e-4 274.59239,355.9483 0 0 0 -149.40294,-57.42452 z" />
      <path
         id="path3-7"
         style="opacity:1;fill:#999999;stroke-width:0.232856"
         d="M 500.12411,508.29116 A 275.70055,355.9483 0 0 0 350.11789,450.86624 275.70055,355.9483 0 0 0 200.12411,508.27876 275.70055,355.9483 0 0 0 350.11789,565.69179 275.70055,355.9483 0 0 0 500.12411,508.29116 Z" />
    </g>
  </g>
</svg>
