<svg
  width="512"
  xmlns="http://www.w3.org/2000/svg"
  height="512"
  id="screenshot-556d6d82-daaa-808b-8006-e2aea6aebea0"
  viewBox="0 0 512 512"
  xmlns:xlink="http://www.w3.org/1999/xlink"
  fill="none"
  version="1.1"
>
  <g
    id="shape-556d6d82-daaa-808b-8006-e2aea6aebea0"
    xmlns:xlink="http://www.w3.org/1999/xlink"
    width="512"
    height="512"
    rx="0"
    ry="0"
    style="fill: rgb(0, 0, 0)"
  ><g id="shape-556d6d82-daaa-808b-8006-e2aea6af3b95"><defs style="fill: rgb(0, 0, 0)"><g
          id="shape-556d6d82-daaa-808b-8006-e2aea6af3b96"
        ><style>
          #shape-556d6d82-daaa-808b-8006-e2aea6aebea0 {
            .cls-1 {
              stroke-linejoin: round;
              stroke-opacity: 0.8;
              stroke-width: 5px;
              stroke: url(#linear-gradient);
              filter: url(#filter);
            }

            .cls-2 {
              fill: #edf9ff;
            }

            .cls-2, .cls-3, .cls-4 {
              fill-rule: evenodd;
            }

            .cls-2, .cls-4 {
              opacity: 0.69;
            }

            .cls-3 {
              fill: #e4faff;
            }

            .cls-4 {
              fill: #edfaff;
            }
          }
          </style></g></defs></g><g id="shape-556d6d82-daaa-808b-8006-e2afdfe90176"><defs><linearGradient
          id="fill-color-gradient-render-4-0"
          x1="0.1557533721923828"
          y1="0.018839996337890626"
          x2="0.8384199981689453"
          y2="0.9801733703613281"
          gradientTransform=""
        ><stop offset="0" stop-color="#68e0cf" stop-opacity="1" /><stop
            offset="1"
            stop-color="#209cff"
            stop-opacity="1"
          /></linearGradient><pattern
          patternUnits="userSpaceOnUse"
          x="6"
          y="6"
          width="500"
          height="500"
          id="fill-0-render-4"
        ><g><rect
              width="500"
              height="500"
              style="fill: url(&quot;#fill-color-gradient-render-4-0&quot;)"
            /></g></pattern></defs><g class="fills" id="fills-556d6d82-daaa-808b-8006-e2afdfe90176"><rect
          rx="100"
          ry="100"
          x="6"
          y="6"
          transform="matrix(1.000000, 0.000000, 0.000000, 1.000000, 0.000000, 0.000000)"
          width="500"
          height="500"
          fill="url(#fill-0-render-4)"
        /></g><g
        id="strokes-830e2a0d-88cc-8076-8007-48139455faf6-556d6d82-daaa-808b-8006-e2afdfe90176"
        class="strokes"
      ><g
          class="inner-stroke-shape"
          transform="matrix(1.000000, 0.000000, 0.000000, 1.000000, 0.000000, 0.000000)"
        ><defs><linearGradient
              id="stroke-color-gradient-render-4-0"
              x1="0.061120000004768374"
              y1="0.07109336853027344"
              x2="0.9464534960985184"
              y2="0.9270933685302735"
              gradientTransform=""
            ><stop offset="0" stop-color="#ffffff" stop-opacity="1" /><stop
                offset="0.5"
                stop-color="#00c0ff"
                stop-opacity="1"
              /><stop offset="1" stop-color="#ffffff" stop-opacity="1" /></linearGradient><clipPath
              id="inner-stroke-render-4-556d6d82-daaa-808b-8006-e2afdfe90176-0"
            ><use href="#stroke-shape-render-4-556d6d82-daaa-808b-8006-e2afdfe90176-0" /></clipPath><rect
              rx="100"
              ry="100"
              x="6"
              y="6"
              width="500"
              height="500"
              id="stroke-shape-render-4-556d6d82-daaa-808b-8006-e2afdfe90176-0"
              style="fill: none; stroke-width: 10; stroke: url(&quot;#stroke-color-gradient-render-4-0&quot;)"
            /></defs><use
            href="#stroke-shape-render-4-556d6d82-daaa-808b-8006-e2afdfe90176-0"
            clip-path="url('#inner-stroke-render-4-556d6d82-daaa-808b-8006-e2afdfe90176-0')"
          /></g></g></g><g id="shape-556d6d82-daaa-808b-8006-e2aea6af6e45"><g
        class="fills"
        id="fills-556d6d82-daaa-808b-8006-e2aea6af6e45"
      ><path
          d="M135,375.009033203125L377,375.009033203125C393.56854248046875,375.009033203125,407,388.4404296875,407,405.009033203125L407,433.009033203125C407,449.5775146484375,393.56854248046875,463.009033203125,377,463.009033203125L135,463.009033203125C118.43145751953125,463.009033203125,105,449.5775146484375,105,433.009033203125L105,405.009033203125C105,388.4404296875,118.43145751953125,375.009033203125,135,375.009033203125Z"
          class="cls-2"
        /></g></g><g id="shape-556d6d82-daaa-808b-8006-e2aea6af6e46"><g
        class="fills"
        id="fills-556d6d82-daaa-808b-8006-e2aea6af6e46"
      ><path
          d="M134.16299438476562,393.780029296875L166.7459716796875,393.780029296875C171.716552734375,393.780029296875,175.7459716796875,397.8094482421875,175.7459716796875,402.780029296875L175.7459716796875,435.2340087890625C175.7459716796875,440.20458984375,171.716552734375,444.2340087890625,166.7459716796875,444.2340087890625L134.16299438476562,444.2340087890625C129.19244384765625,444.2340087890625,125.16299438476562,440.20458984375,125.16299438476562,435.2340087890625L125.16299438476562,402.780029296875C125.16299438476562,397.8094482421875,129.19244384765625,393.780029296875,134.16299438476562,393.780029296875Z"
          class="cls-3"
        /></g></g><g id="shape-556d6d82-daaa-808b-8006-e2aea6afbd9f"><g
        class="fills"
        id="fills-556d6d82-daaa-808b-8006-e2aea6afbd9f"
      ><path
          d="M203.7230224609375,393.780029296875L236.3060302734375,393.780029296875C241.27655029296875,393.780029296875,245.3060302734375,397.8094482421875,245.3060302734375,402.780029296875L245.3060302734375,435.2340087890625C245.3060302734375,440.20458984375,241.27655029296875,444.2340087890625,236.3060302734375,444.2340087890625L203.7230224609375,444.2340087890625C198.75244140625,444.2340087890625,194.7230224609375,440.20458984375,194.7230224609375,435.2340087890625L194.7230224609375,402.780029296875C194.7230224609375,397.8094482421875,198.75244140625,393.780029296875,203.7230224609375,393.780029296875Z"
          class="cls-3"
        /></g></g><g id="shape-556d6d82-daaa-808b-8006-e2aea6afbda0"><g
        class="fills"
        id="fills-556d6d82-daaa-808b-8006-e2aea6afbda0"
      ><path
          d="M276.676025390625,393.780029296875L309.259033203125,393.780029296875C314.22955322265625,393.780029296875,318.259033203125,397.8094482421875,318.259033203125,402.780029296875L318.259033203125,435.2340087890625C318.259033203125,440.20458984375,314.22955322265625,444.2340087890625,309.259033203125,444.2340087890625L276.676025390625,444.2340087890625C271.7054443359375,444.2340087890625,267.676025390625,440.20458984375,267.676025390625,435.2340087890625L267.676025390625,402.780029296875C267.676025390625,397.8094482421875,271.7054443359375,393.780029296875,276.676025390625,393.780029296875Z"
          class="cls-3"
        /></g></g><g id="shape-556d6d82-daaa-808b-8006-e2aea6afbda1"><g
        class="fills"
        id="fills-556d6d82-daaa-808b-8006-e2aea6afbda1"
      ><path
          d="M346.2359619140625,393.780029296875L378.8189697265625,393.780029296875C383.78955078125,393.780029296875,387.8189697265625,397.8094482421875,387.8189697265625,402.780029296875L387.8189697265625,435.2340087890625C387.8189697265625,440.20458984375,383.78955078125,444.2340087890625,378.8189697265625,444.2340087890625L346.2359619140625,444.2340087890625C341.26544189453125,444.2340087890625,337.2359619140625,440.20458984375,337.2359619140625,435.2340087890625L337.2359619140625,402.780029296875C337.2359619140625,397.8094482421875,341.26544189453125,393.780029296875,346.2359619140625,393.780029296875Z"
          class="cls-3"
        /></g></g><g id="shape-556d6d82-daaa-808b-8006-e2aea6afbda2"><g
        class="fills"
        id="fills-556d6d82-daaa-808b-8006-e2aea6afbda2"
      ><path
          d="M71.00900268554688,52.9949951171875L439.99200439453125,52.9949951171875C444.9625244140625,52.9949951171875,448.99200439453125,57.024444580078125,448.99200439453125,61.9949951171875L448.99200439453125,73.0050048828125C448.99200439453125,77.97555541992188,444.9625244140625,82.0050048828125,439.99200439453125,82.0050048828125L71.00900268554688,82.0050048828125C66.0384521484375,82.0050048828125,62.009002685546875,77.97555541992188,62.009002685546875,73.0050048828125L62.009002685546875,61.9949951171875C62.009002685546875,57.024444580078125,66.0384521484375,52.9949951171875,71.00900268554688,52.9949951171875Z"
          class="cls-4"
        /></g></g></g>
</svg>
