<?xml version="1.0" encoding="UTF-8" standalone="no"?>
<!-- Created with Inkscape (http://www.inkscape.org/) -->

<svg
  width="480.68573"
  height="473.31152"
  viewBox="0 0 480.68573 473.31152"
  version="1.1"
  id="svg1"
  xml:space="preserve"
  xmlns:xlink="http://www.w3.org/1999/xlink"
  xmlns="http://www.w3.org/2000/svg"
  xmlns:svg="http://www.w3.org/2000/svg"
>
  <defs
    id="defs1"
  ><linearGradient
      id="linearGradient3"
    ><stop
        style="stop-color: #5f5f5f; stop-opacity: 1"
        offset="0"
        id="stop3"
      /><stop
        style="stop-color: #e5e5e5; stop-opacity: 1"
        offset="0.74943566"
        id="stop4"
      /></linearGradient><linearGradient
      id="swatch1"
    ><stop
        style="stop-color: #000000; stop-opacity: 1"
        offset="0"
        id="stop1"
      /></linearGradient><linearGradient
      xlink:href="#linearGradient3"
      id="linearGradient4"
      x1="237.30095"
      y1="882.54614"
      x2="764.81903"
      y2="129.17221"
      gradientUnits="userSpaceOnUse"
      gradientTransform="matrix(0.52264884,-0.00246068,0.00246068,0.52264884,-21.538676,-27.73401)"
    /></defs><path
    id="path1-0"
    style="display: inline; opacity: 1; fill: url(#linearGradient4); fill-opacity: 1; stroke: none; stroke-width: 0; stroke-dasharray: none"
    d="m 200.23895,0.00280952 c -0.018,-0.32426 -4.8345,27.32327048 -14.15351,44.97177048 -0.16085,0.30462 -8.53829,-22.86359 -22.99986,-42.6892405 -0.68725,-0.94217 4.55783,33.6805405 -3.27272,70.0837005 -0.12209,0.56758 -5.64194,-5.87072 -6.50868,-16.1094 -0.0468,-0.55284 -4.67208,82.67851 -60.470726,139.71518 2.77484,-12.72258 10.777396,-27.20215 17.594676,-38.02313 6.81907,-10.82384 12.45186,-17.9876 10.48167,-16.07061 -41.487036,43.79101 -62.834726,95.65132 -55.010416,161.5993 -20.10963,-22.08248 -28.37929,-44.88141 -21.45946,-75.09996 -2.41389,3.16937 -5.90382,8.78841 -7.24775,12.56515 -4.31361,-48.95871 16.3426,-90.01704 55.51571,-119.06522 -25.13187,8.26659 -46.01173,25.83267 -58.2229,48.98254 C 39.141344,114.86916 67.457484,63.51913 112.32683,29.70021 42.476714,73.66883 0.0685145,150.39877 -1.5498103e-5,232.93527 0.2693645,261.43802 6.8048545,289.53265 19.143234,315.22786 c -2.26539,-2.00564 -4.42429,-4.12842 -6.46786,-6.35965 13.68436,40.74186 38.04152,77.0698 70.5349,105.20058 2.27973,-4.74246 12.39011,-22.79249 37.357556,-30.43442 5.83538,-1.78608 12.51874,-7.79463 15.0794,-10.31733 -0.0168,-0.0166 -0.0322,-0.0345 -0.049,-0.0511 0.23105,-0.0485 1.25228,-1.66196 0.52775,-2.90625 -1.67996,-2.88518 4.05374,-9.42875 3.91787,-9.71402 -46.421206,-97.46552 26.52996,-157.82413 14.36586,-149.15359 -5.48489,3.90962 -16.15023,15.99609 -16.15023,15.99609 0,0 12.7853,-79.93981 101.05817,-121.2426 5.8173,-2.72195 -14.2288,3.93206 -19.0473,2.90624 -4.8185,-1.02581 51.3842,-42.04614 115.25458,-48.74979 18.3215,-1.92298 -55.20662,-2.58265 -55.20662,-2.58265 0,0 32.11692,-20.74723 81.92732,-30.13839 1.3183,-0.24855 -42.4279,-1.48956 -85.16022,13.75542 -3.47896,1.24113 5.94432,-8.88991 5.33592,-8.65647 -54.14258,20.77241 -103.64081,73.77494 -103.64081,73.77494 0,0 24.69503,-49.1606 21.45843,-106.55212048 z M 230.82545,24.96365 c -2.2833,-0.0298 -6.5189,0.47092 -10.4878,3.54527 -5.1402,3.98173 -10.2199,11.60282 -5.9115,23.25303 0,0.0109 6.4322,0.70606 11.9333,-3.17778 6.0831,-4.29474 11.3605,-14.13072 6.1606,-23.4429 -0.023,-0.0411 -0.6567,-0.16404 -1.6946,-0.17762 z M 121.14561,54.1925 c -0.14805,-0.0274 -4.93996,4.2307 -5.18062,11.52902 -0.21428,6.4985 2.41179,15.27249 14.13108,19.38927 0.011,0.004 4.64846,-4.50279 5.16836,-11.21667 0.57489,-7.42415 -3.63085,-17.76315 -14.11882,-19.70162 z m 159.56992,56.49365 c -6.33548,-0.0292 -14.37208,2.73329 -18.54918,13.60331 -0.01,0.0109 4.3656,4.77717 11.0615,5.49196 7.40438,0.79041 17.86148,-3.1128 20.10388,-13.54002 0.032,-0.14719 -4.0846,-5.06074 -11.3728,-5.51339 -0.4056,-0.0252 -0.821,-0.0399 -1.2434,-0.0419 z m 196.2068,81.78422 c 0.363,4.3581 0.5523,8.72893 0.5676,13.1021 -0.1574,43.56276 -17.5545,85.29159 -48.3884,116.06505 4.1055,-14.47536 6.2095,-29.44473 6.2535,-44.49098 -0.2082,-6.19284 -0.7655,-12.36901 -1.6691,-18.49911 -3.3329,94.41709 -81.0897,168.5112 -175.58338,167.31277 -27.4398,-0.48423 -54.4315,-7.41978 -78.79222,-20.24572 0.0356,0.35093 0.007,0.60578 -0.14087,0.68088 -42.6932,21.78145 -63.79101,27.06606 -68.83219,28.11821 39.02281,25.34894 84.56418,38.82679 131.09748,38.79792 63.75288,-0.3003 124.77558,-25.91425 169.64338,-71.20659 44.8677,-45.29235 69.9051,-106.55298 69.6049,-170.30579 -0.1723,-13.19056 -1.4301,-26.34456 -3.7607,-39.32874 z m -160.4253,0.62882 c -3.8044,0.14315 -8.0673,1.18112 -12.8051,3.49525 -0.3111,0.15198 -60.92048,42.70503 -61.74778,42.49836 -0.9207,-0.23001 1.2175,-3.81717 0.3297,-3.7331 -13.1296,1.24206 -56.49839,48.35882 -48.416,48.35882 1.5181,10e-6 9.2498,-6.19097 7.9542,-4.27107 -5.7088,8.45958 -44.46272,43.03465 -47.88518,57.22455 -1.33885,5.55105 52.31748,-40.35971 50.37188,-36.94718 -1.5076,2.64418 -54.84469,55.39737 -52.11236,61.93661 0.7573,1.81247 54.44786,-46.24588 60.17266,-42.27173 2.6462,1.83698 -8.3819,20.28945 -85.55918,68.44121 -13.45127,8.3924 -21.68844,7.00535 -40.075966,37.96494 0.11687,3.20621 32.089786,-19.87859 32.422956,-16.44729 -0.39219,2.27258 -15.70487,14.38714 -12.17622,15.97772 2.26946,1.02298 4.5915,-0.35926 6.89965,-0.81665 33.2189,-9.06162 72.98699,-40.13974 98.69596,-42.71477 5.1756,0.60081 14.3371,6.28491 14.4332,9.28937 0.1532,4.78855 2.986,8.50339 9.1649,9.99169 3.9869,1.37719 8.8389,4.04405 11.0176,7.89188 0.6349,2.14594 -7.7435,3.62936 -7.6969,12.10782 0.01,1.40647 3.0528,1.64731 3.6565,0.71151 9.6766,-14.1948 22.1047,-2.8374 23.0386,-0.0163 0.023,0.0673 0.9224,0.33259 1.5006,0.0847 2.7073,-1.16046 0.4619,-5.58383 -1.0065,-7.03848 -4.1947,-4.15564 -11.1171,-5.58582 -15.943,-11.08396 -0.9002,-1.02563 -1.4066,-2.42332 -1.7343,-3.67389 -0.6077,-2.31885 -5.1231,-6.46873 -4.3344,-8.54009 1.1264,-2.95817 -1.2644,-2.89041 -2.2131,-5.38784 -0.9743,-2.56495 6.69,-8.40575 8.9372,-7.6428 5.255,1.7841 -2.5976,6.29293 0.6829,14.18415 3.4759,8.36126 27.63326,16.06757 25.52326,21.29307 -0.3445,0.85297 -5.37206,7.19872 -3.81066,8.51253 4.05876,3.41518 7.61808,-12.64819 19.20048,-3.36458 1.4877,1.19243 6.1978,-0.29497 5.2235,-1.49753 -5.045,-6.22667 -27.79398,-11.34458 -25.13648,-25.70195 0.389,-2.10196 -0.7319,-2.66084 -1.0484,-3.96483 -0.3768,-1.55257 1.6883,-1.76194 2.2458,-2.71331 0.5742,-0.97983 0.3308,-1.93847 -1.0177,-4.0128 -3.7135,-5.71188 -3.4959,-7.69714 -3.0768,-9.11073 4.7432,-18.1652 26.07578,-22.88984 36.21838,-61.42212 -12.088,17.08673 -34.41508,38.41395 -46.12838,41.50919 -3.0389,0.80302 -5.2781,-1.56785 -6.7179,-0.55022 -19.4659,13.75734 -30.8509,22.80829 -47.5044,21.43292 -4.2511,-0.35109 -19.15309,7.57772 -20.10385,6.63322 -1.1271,-1.11968 18.40865,-10.7424 20.97045,-10.76137 1.9571,-0.0145 1.4599,1.72443 4.7703,1.66595 14.7265,-0.52762 36.8818,-21.01415 46.5938,-28.28562 0.5153,-0.4041 1.9128,-0.40246 2.6429,0.003 0.4037,0.22418 1.4269,0.33482 2.1641,0.33482 1.3198,1e-5 53.67528,-26.79817 45.52508,-69.30992 -0.093,-0.85959 0.2471,-1.31028 1.0913,-2.3744 16.6665,-21.00936 25.0594,-46.64066 79.663,-50.53621 0.3007,-0.0215 0.6104,-1.17012 0.6104,-1.668 -1e-4,-0.79787 -18.7081,-15.31304 -43.07,-7.16915 -1.798,0.60102 -3.0394,0.95526 -3.8393,0.57574 -0.435,-0.20643 -1.5499,-1.40836 -1.6179,-1.63024 -0.5839,-1.90344 -8.4582,-18.08125 -24.9435,-17.46095 z m 10.2591,11.81587 c 0.026,0.69435 0,1.39324 0.026,2.07735 -0.413,0.4164 -0.8268,0.83301 -1.2403,1.24948 0.4094,0.41219 0.8183,0.82541 1.228,1.23619 l 10e-5,2.09062 -2.0702,2e-5 c -0.319,-0.32597 -0.7557,-0.76744 -1.225,-1.2413 -0.4054,0.40937 -0.8118,0.81832 -1.2158,1.22803 l -2.0906,0.0174 -0.017,-2.06919 c 0.3295,-0.32793 0.775,-0.77569 1.2556,-1.25967 -0.5679,-0.57097 -1.2398,-1.24636 -1.2393,-1.24845 v -2.07021 c 0.6946,-0.0204 1.3931,0.009 2.0774,-0.008 0.4095,0.41308 0.8194,0.82673 1.229,1.24028 0.5479,-0.5541 1.2107,-1.2255 1.2127,-1.22498 z"
  />
</svg>
