<?xml version="1.0" encoding="UTF-8" standalone="no"?>
<!-- Created with Inkscape (http://www.inkscape.org/) -->

<svg
   width="3558.7483"
   height="3558.7483"
   viewBox="0 0 941.58546 941.58546"
   version="1.1"
   id="svg1"
   xmlns="http://www.w3.org/2000/svg"
   xmlns:svg="http://www.w3.org/2000/svg">
  <defs
     id="defs1" />
  <g
     id="layer1"
     transform="translate(-64.293696,-64.293696)">
    <path
       id="path3-7-8"
       style="display:inline;fill:#4d4d4d;fill-opacity:1;stroke-width:0;stroke-dasharray:none"
       d="m 923.73113,519.88743 a 374.73522,543.27319 0 0 0 -203.66044,-86.98476 374.73522,543.27319 0 0 0 -203.66047,86.98476 374.73522,543.27319 0 0 0 203.66047,88.5108 374.73522,543.27319 0 0 0 203.66044,-88.5108 z" />
    <path
       id="path2"
       style="display:inline;fill:#999999;fill-opacity:1;stroke-width:0;stroke-dasharray:none"
       d="m 346.02642,439.47353 a 359.53253,481.54393 0 0 0 -188.11511,71.56292 383.26231,395.21084 0 0 0 -0.22746,3.2791 383.26231,395.21084 0 0 0 131.91979,298.31025 390.79625,405.79544 0 0 0 0.81401,0.72135 383.26231,395.21084 0 0 0 37.1226,28.65638 390.79625,405.79544 0 0 0 11.23906,7.6228 383.26231,395.21084 0 0 0 29.53358,16.62902 390.79625,405.79544 0 0 0 20.31139,10.20708 383.26231,395.21084 0 0 0 22.03533,8.47469 390.79625,405.79544 0 0 0 29.06297,10.09526 383.26231,395.21084 0 0 0 11.4968,2.57907 390.79625,405.79544 0 0 0 88.90278,11.4818 390.79625,405.79544 0 0 0 146.25407,-29.9805 383.26231,395.21084 0 0 0 0.31573,-0.12118 390.79625,405.79544 0 0 0 40.30861,-20.29297 383.26231,395.21084 0 0 0 7.03022,-3.95885 390.79625,405.79544 0 0 0 31.99076,-21.74452 383.26231,395.21084 0 0 0 13.44765,-10.38078 390.79625,405.79544 0 0 0 22.63548,-20.11095 383.26231,395.21084 0 0 0 20.90604,-21.55781 390.79625,405.79544 0 0 0 11.49579,-13.20794 A 383.26231,395.21084 0 0 0 923.84,519.62244 358.51084,481.54393 0 0 1 734.9936,593.44927 358.51084,481.54393 0 0 1 540.74553,515.47169 h -0.62337 a 359.53253,481.54393 0 0 1 -0.0483,0.0364 359.53253,481.54393 0 0 0 -194.04731,-76.03457 z" />
    <path
       id="path2-1"
       style="display:inline;fill:#ffffff;fill-opacity:1;stroke-width:0;stroke-dasharray:none"
       d="M 295.76427,476 A 404.74158,470.22822 0 0 0 139.32823,513.2914 392.42882,392.14976 0 0 0 138,531.85015 392.42882,392.14976 0 0 0 530.42894,924 392.42882,392.14976 0 0 0 920,571.77599 403.59141,470.22822 0 0 1 733.64164,626.35769 403.59141,470.22822 0 0 1 514.96788,550.21228 h -0.70181 a 404.74158,470.22822 0 0 1 -0.0542,0.0357 404.74158,470.22822 0 0 0 -218.44758,-74.24789 z" />
    <path
       id="path1"
       style="fill:#000000;stroke-width:0;stroke-dasharray:none"
       d="M 534.58081,64.294784 A 470.28598,470.28598 0 0 0 64.294784,534.58081 470.28598,470.28598 0 0 0 534.58081,1005.8781 470.28598,470.28598 0 0 0 1005.8781,534.58081 470.28598,470.28598 0 0 0 534.58081,64.294784 Z m 0.41909,39.705066 A 431,431 0 0 1 966.99989,534.9999 431,431 0 0 1 534.9999,965.99995 431,431 0 0 1 103.99985,534.9999 431,431 0 0 1 534.9999,103.99985 Z" />
  </g>
</svg>
